PathFileType	3	(X/Y/Z)	results
DataRate	CameraRate	NumFrames	NumMarkers	Units	OrigDataRate	OrigDataStartFrame	OrigNumFrames
30.0	30.0	4	85	mm	30.0	122	243
Frame#	Time	head			nose			neck			shoulder_r			elbow_r			wrist_r			shoulder_l			elbow_l			wrist_l			hip_r			knee_r			ankle_r			hip_l			knee_l			ankle_l			heel_r			heel_l			mtoe_r			ltoe_r			mtoe_l			ltoe_l			asis_l			asis_r			psi_r			psi_l			mhnd_r			lhnd_r			mhnd_l			lhnd_l			l_lat_knee			r_med_wrist			l_lat_ankle			r_med_ankle			r_lat_knee			xiphoid			l_med_ankle			r_med_knee			l_med_elbow			navel			r_lat_elbow			r_lat_wrist			l_med_wrist			l_lat_elbow			l_med_knee			r_med_elbow			r_lat_ankle			l_lat_wrist			chin			T10			r_eye			l_eye			l_ear			r_ear			spinal_cord_8			spinal_cord_12			spinal_cord_27			spinal_cord_33			up_arm_r_0			up_arm_r_5			up_arm_l_0			up_arm_l_5			front_torso_11			front_torso_7			front_torso_4			front_torso_1			front_torso_10			thigh_r_2			thigh_r_3			thigh_l_1			thigh_l_5			shank_l_0			shank_l_4			shank_r_1			shank_r_2			foot_r_1			foot_r_3			foot_r_5			foot_r_6			foot_r_7			foot_l_1			foot_l_7			foot_l_0			foot_l_4			foot_l_5			foot_l_6			
		X1	Y1	Z1	X2	Y2	Z2	X3	Y3	Z3	X4	Y4	Z4	X5	Y5	Z5	X6	Y6	Z6	X7	Y7	Z7	X8	Y8	Z8	X9	Y9	Z9	X10	Y10	Z10	X11	Y11	Z11	X12	Y12	Z12	X13	Y13	Z13	X14	Y14	Z14	X15	Y15	Z15	X16	Y16	Z16	X17	Y17	Z17	X18	Y18	Z18	X19	Y19	Z19	X20	Y20	Z20	X21	Y21	Z21	X22	Y22	Z22	X23	Y23	Z23	X24	Y24	Z24	X25	Y25	Z25	X26	Y26	Z26	X27	Y27	Z27	X28	Y28	Z28	X29	Y29	Z29	X30	Y30	Z30	X31	Y31	Z31	X32	Y32	Z32	X33	Y33	Z33	X34	Y34	Z34	X35	Y35	Z35	X36	Y36	Z36	X37	Y37	Z37	X38	Y38	Z38	X39	Y39	Z39	X40	Y40	Z40	X41	Y41	Z41	X42	Y42	Z42	X43	Y43	Z43	X44	Y44	Z44	X45	Y45	Z45	X46	Y46	Z46	X47	Y47	Z47	X48	Y48	Z48	X49	Y49	Z49	X50	Y50	Z50	X51	Y51	Z51	X52	Y52	Z52	X53	Y53	Z53	X54	Y54	Z54	X55	Y55	Z55	X56	Y56	Z56	X57	Y57	Z57	X58	Y58	Z58	X59	Y59	Z59	X60	Y60	Z60	X61	Y61	Z61	X62	Y62	Z62	X63	Y63	Z63	X64	Y64	Z64	X65	Y65	Z65	X66	Y66	Z66	X67	Y67	Z67	X68	Y68	Z68	X69	Y69	Z69	X70	Y70	Z70	X71	Y71	Z71	X72	Y72	Z72	X73	Y73	Z73	X74	Y74	Z74	X75	Y75	Z75	X76	Y76	Z76	X77	Y77	Z77	X78	Y78	Z78	X79	Y79	Z79	X80	Y80	Z80	X81	Y81	Z81	X82	Y82	Z82	X83	Y83	Z83	X84	Y84	Z84	X85	Y85	Z85	
122	4.066666666666666	297.23427148662034	1664.445741364693	-247.47105541259205	275.19980843006016	1505.3013708967621	-386.6886381764116	260.7416229646131	1350.8598829187908	-242.8384469187887	410.90399710579385	1317.692121185196	-273.2041007558713	569.9348546258833	1187.9194807981369	-437.0497002940281	402.602084371523	1293.8704245985527	-545.9853937213109	93.8386421657322	1293.4130909894	-278.43502474959763	-27.894733685618892	1222.5811505271213	-507.0821504084639	187.23889205064992	1309.330379639204	-566.4997915551812	364.93393427047573	840.647126918558	-146.96059279411605	403.56185416829874	479.75837160702594	-283.02117401990296	484.20481151342125	107.6668315540471	-189.73565955408932	158.87650705316003	837.2382760580317	-137.6492757446156	100.95098415117596	474.9708832329777	-270.75080763704005	62.28798453387799	105.59161611977524	-168.64443700356802	489.72466094914665	51.994039831920055	-165.68530597868974	53.61712779572017	43.307926706331074	-135.58509001111807	494.6388336829912	35.564403132722866	-391.4159156797699	559.0472955329966	35.44634966124035	-329.01181032646167	57.51576174980137	48.47196810894883	-364.5950491546529	-20.42044888396597	29.00638322759085	-306.5679328914384	109.30292234025013	875.234658200334	-205.30762110966023	411.2410408712591	879.0115814197021	-214.36947873122213	313.7465187333361	961.3793017799964	-91.1086166526151	210.77870735770702	956.5441849958504	-91.7514050945346	359.5300718356267	1308.8735692843607	-603.4431622135444	338.7690166760539	1346.8545839122767	-571.8921975493438	245.9325616271458	1325.8154366689243	-612.3027701386989	267.2286884676341	1346.7163103841033	-567.9702111865763	52.49728239259227	479.2130871388862	-268.3985314937775	418.9423739507097	1281.055036487029	-565.4148730174329	10.95638223098036	100.3654500765408	-150.8054826799073	453.86416984140226	87.70032594943694	-203.0223456409785	446.3448629331611	477.2363056883023	-284.9140673355399	268.76525279244726	1170.778117039958	-314.153879703916	87.10673520225251	86.83564947476013	-184.27493986386096	362.72685210496473	472.11169219152566	-283.5636820793792	-21.633528231617323	1190.4521216085618	-489.99130545740235	269.38696547604496	952.1749934773834	-299.8602087984119	586.3315667357866	1224.4862058566152	-439.594349506075	393.8214379460571	1295.5892816927321	-515.9281150833863	168.53782117201277	1308.6544118703375	-594.0613199923525	-36.59671916600042	1262.1245186164672	-501.52949935302746	145.9720123213102	476.61643062267393	-287.97016541733393	547.9891737331179	1160.0198488750868	-426.55381167339067	534.5797042498176	100.34966708466875	-185.15032795977982	185.04359587297242	1315.0372228283861	-535.0223096775964	272.99701936740007	1427.9980983501102	-375.49126156615563	259.68009840316785	1207.7122613626045	-122.46315531506275	309.78988567388654	1535.013010987173	-385.84330899962646	241.11391408644994	1537.8718324949962	-379.662519560163	197.33958140027462	1523.8558871462499	-274.6672517840055	367.7247935305151	1513.392284628055	-287.78247126353807	257.6150108928275	1415.840934864249	-202.41192525190587	255.9263777552465	1306.6715179298174	-135.9077330525531	274.82119283013725	1055.911333239254	-117.51391430625465	260.2822109740953	1196.4645014432538	-134.05096446511106	470.0782398965593	1275.4184267671035	-390.21824754348347	532.9390755230563	1236.1242186327581	-341.48579984672546	56.71600012182569	1306.2352978823562	-326.2533010871329	-2.3558286116580343	1203.7824369136229	-426.96152521849007	317.4497039128054	985.7887541067433	-262.3164290801377	272.3847203869921	1080.7668586637622	-332.811830507441	201.2232653986454	1213.5978441879454	-328.84456412067266	194.800607384324	1016.3310722864976	-276.3573503211881	351.3747639454305	1255.931407625549	-335.5217197918794	368.26562832256246	643.4976686594526	-219.75618364071238	466.22693259552193	620.792965264906	-233.02842780401218	164.66522910135893	573.656016723238	-232.3196499694237	45.07600910531656	758.8374223970884	-185.97084277841967	4.640274838655784	203.04002153126544	-189.2175382750515	131.40691284770884	323.64436926772476	-245.16092931382252	495.24613816498965	334.0916493615595	-237.19352272775896	406.9772194478881	275.17624567570584	-242.3315100434021	517.6103460720027	29.709128713114954	-372.2557826743742	541.2580081907631	32.90753861241501	-354.7604332954375	479.3243170098541	49.05295126274693	-309.35433103497974	515.7130921108374	57.462940486400015	-295.0378109766833	546.9014464600824	45.386286954644504	-281.45443801291117	9.214962490975886	32.24566927177847	-337.5963325053163	-8.088094930139178	59.08689531795197	-230.02190855680942	-5.593973483845778	31.152285388286614	-329.26118766902175	27.42642194301885	33.54170069243504	-347.18363673642295	21.132034724857604	47.608720194005954	-287.52664744585394	52.08962106013914	60.78581710454308	-257.9072524029929	
123	4.1	297.21743460773615	1682.6611098817248	-239.90829170879448	278.5300319281904	1523.0070772351241	-379.0318138220467	261.88477235563835	1367.6300208692055	-235.2816805686303	431.3959935881071	1330.2227657955798	-268.26573609271264	579.2996135488526	1203.112616854352	-444.1766839136721	401.2843395831641	1310.1291478929586	-533.344324428964	102.03808383911202	1312.338841144205	-256.5527177906741	-23.48608949426586	1226.595835506325	-477.92910666499415	179.1450961398782	1321.8320852136685	-562.835061129892	365.66978027661054	853.8866395227092	-159.06967755798001	403.9646330179239	483.1585599013657	-262.6373870170958	487.1800226361782	107.40445129092035	-188.19521650489204	159.55620542106774	850.3402809475384	-151.15754750787107	109.57724671103958	477.1396067625394	-248.58493083967588	64.15331811853386	103.57090653364331	-166.45896444079585	493.1464204219082	51.409740535288456	-166.28923953047024	54.63238850029037	41.08489803473378	-135.68881905229125	493.29773403905347	37.0751472145563	-392.21596825079126	558.9831935741274	36.042517940760106	-331.16606782579805	56.34143857338324	46.68831970218599	-364.7152561085922	-21.59850240471562	29.68534011435267	-305.92433478552465	110.43135520445097	890.9706384445105	-217.60181133546422	412.42254197628233	894.7732295754128	-224.6639107001117	314.2394151136628	972.4291423748178	-98.91616268296063	211.27354845385295	967.7318976719399	-100.37489705907696	352.5308917633895	1326.004956203192	-585.8109596426315	334.9081264707866	1363.2001061732765	-551.5326688904487	231.95264785172816	1339.086132924989	-615.0679733646693	256.20353909712736	1363.4509268379452	-574.1534476422507	60.63829807450774	479.74284554441243	-248.4546784919675	415.6251926756834	1297.8190118915816	-554.5938982107009	12.27980895598052	98.06223513595519	-150.35716067690825	456.5117467402733	88.00208701350287	-201.56522115408245	446.7376968788095	480.1508301088093	-266.19513247200643	269.26081902407475	1190.5369487638852	-313.78868496204643	89.21289127011391	85.3329059179892	-182.31653096903395	363.1653209611443	474.92293427075964	-263.29961399016025	-14.55819941929605	1195.497504889781	-460.1313319220255	269.5860558901128	971.5360961236948	-308.26220780379913	595.0951269169111	1239.865159739751	-447.67026918186656	395.59422024889636	1311.1805136604728	-502.5220696045392	157.9009616270153	1318.6646465224444	-588.3003102973769	-34.46515757529391	1265.6817547125866	-473.2402444610602	154.2877573023822	477.07617151843755	-267.1625445037157	558.4652188949018	1174.9207225595135	-432.28924749122734	537.6606791039504	99.97095055279264	-185.25542582115946	179.71376713649485	1329.0682676191223	-531.6015290315216	276.71232836303136	1445.7184850003223	-367.6652429609572	261.1679036161641	1219.7784004470427	-120.7305406440497	312.8860726480546	1552.972339632858	-377.7221965103491	244.10246754797078	1555.3457321012609	-372.628399339905	198.78535338197295	1541.2775552961482	-268.29676105806817	369.4271613435871	1532.024041447382	-278.70648388648476	259.0631458552368	1430.9445755149945	-192.27096024257276	257.5145940969513	1319.2021166520858	-130.18355789323414	276.078775733089	1067.8788337733001	-121.93762107309739	261.694947172812	1209.0028312287066	-132.76221952771365	482.2626195302031	1289.2714490574058	-389.5774948827169	548.9191504457273	1250.3562282900546	-345.8409725470292	62.40021263004181	1321.2479676223838	-303.22769743960004	6.196736532872713	1212.0646689675361	-398.35073696068326	317.886621030337	1003.5483477313462	-269.6394388796782	272.6390526675867	1101.3398202723733	-336.053143514627	201.72008493392096	1234.0104009644342	-326.4209252659299	195.22211084715835	1034.8096723568747	-281.84308884686686	351.9080456890444	1276.355452179002	-332.13587048714817	368.84561317413176	651.1956970241599	-214.6079800012246	466.7166864784348	627.7095088572465	-227.16684666490139	170.81015531190747	579.2218701712957	-220.72587683142117	47.55341775462024	765.6563315269854	-192.5848970975573	8.138412648178273	202.60898176686766	-183.67792682297264	137.7073124073642	324.3655401748254	-229.85251838386856	496.878457041362	335.7392477707585	-225.76540251723156	408.53161346166013	276.9699904320835	-231.22757589175544	516.6297716414175	30.92308839043936	-373.5919646452731	540.6512883497477	33.83637525544388	-356.56232888488006	479.7576005640693	49.87068281619818	-309.73252700257126	516.4790953350711	57.96006710963654	-296.0970107964329	547.8776504846854	45.597402886336894	-283.2766248259696	7.807191118628258	32.01293368183859	-337.2516337535553	-7.482080272409291	59.14691943002456	-229.445841249712	-6.943307198082484	31.392746209731474	-328.7655934889084	25.95199668864812	32.72541720435064	-347.0246452286768	20.745093304161916	46.84525430052241	-287.2753768076576	52.42833597061962	58.90953447729447	-257.95061124413	
124	4.133333333333333	297.9479708696366	1695.290113875032	-234.04853618796145	280.6979998572608	1534.9631550677843	-372.58260544212453	262.5782413127028	1379.4565135313776	-229.77778088403423	445.37273180895505	1337.3575751165004	-266.7308986377932	577.8654160108468	1209.1404958898565	-453.7688668479625	394.48325114562334	1322.82749694484	-521.1416447048135	116.03911621052066	1344.3750567614516	-222.45011794574637	8.767009044130381	1210.2733973973163	-428.90865285711146	171.9331398155317	1329.0122010814252	-557.8127723497416	367.41294471714235	863.5450016288432	-176.4458165326203	406.16020520477764	484.95708586432266	-242.30251914927518	488.94405724927145	105.98954132529053	-185.83994761513122	161.19343717579804	859.8726623431393	-172.2016635687121	114.67014170996414	478.3936770515217	-224.0305434670553	65.90626966302732	101.04216924443188	-164.1180591658711	494.8057369111028	49.50484966426426	-166.18651790138622	56.040824496682596	38.175735676709884	-136.03291497701343	494.14631695229696	40.03675198938038	-392.36854747819365	560.0460639320584	37.63693106562083	-331.58861273826636	55.8795937770023	46.22428299997792	-364.99278689320647	-21.921372086708462	30.411123466857134	-305.68796549728023	113.2069162898742	907.6065544259565	-234.6331172969278	415.27849085015157	911.1128147709442	-236.49854370179557	315.230927572614	975.0770735555072	-104.65802639022134	212.29363390497107	970.918154122039	-108.23275327655469	340.96727350825154	1341.2892269598383	-567.7988246113665	328.03550366930165	1377.9741642786848	-530.9745533016561	212.2245526395085	1347.6428517481208	-619.8137216096812	235.50798573945235	1382.8717478353806	-587.0638521861104	65.19981545440487	479.2499441358298	-222.25677511810557	406.1877982712481	1310.7429967793562	-544.070062313396	13.630313482332998	94.8958821592184	-149.62937191283748	458.0538961328165	87.29887996050667	-199.70389489744406	448.8961118897416	481.35169833674246	-247.26317187165787	269.2917954892427	1204.6451860151208	-313.298077538833	91.28688736128457	83.59729297750256	-180.35289290323735	365.3356192739483	476.3127124786975	-243.7546630681729	25.087894232728726	1184.005082713858	-408.72998777540994	270.0074714516636	985.5764115922151	-313.9153835349352	594.0899583075819	1245.6181653361805	-458.0812499659101	392.0728902026509	1323.1928965311974	-489.8758348841168	148.80572569885723	1317.4208702701985	-578.802974838663	-10.882020910083694	1246.0753404334755	-427.3688666421711	157.16888900866633	476.39528955390983	-247.96391559573198	557.3807742035505	1181.2374204291075	-440.65536696867423	539.4297497676083	98.28346236884688	-183.8381539279226	174.93474870595924	1341.3110009312911	-528.3517961919636	278.5958972297661	1457.7368377477965	-360.8477621639019	263.4308386823058	1228.4537985089332	-119.41459701438717	315.09049328748125	1564.8732258335895	-370.99715772937566	246.25333070967903	1567.3955100330716	-366.7725603945696	199.6152698389322	1553.9400037398705	-262.9434420792523	370.3559960841229	1544.3285058604174	-271.17994510543144	260.16955580363543	1441.5364849699117	-184.97943438131256	259.5186990424343	1328.096457139649	-126.03406028706165	278.55209466427397	1076.6749300009487	-125.05305408029011	263.83208223837056	1218.0203797083504	-131.74888821371147	486.66691587431285	1296.602810235767	-391.6901171850458	555.4902771728736	1256.0156476471232	-353.1362836576938	74.3426699978237	1339.2136881631393	-267.8797750129387	42.854486073087074	1211.0334827851007	-349.773274758975	318.71217032329116	1016.582086901322	-274.98021265213345	272.5399552699886	1116.112842167439	-338.0916222469944	201.54239436672873	1248.332689898674	-323.9134416272932	195.86607302351504	1047.9502147448163	-284.86244327844497	351.58951602453584	1291.0937184716468	-330.2017827930533	370.81750523263247	656.457862181759	-212.24431883565885	468.7066574504296	632.0061891623455	-222.63194228169053	174.43154711555087	583.1767932189524	-213.86393606655773	48.679704405151234	769.1706326212516	-195.56879370678104	10.685257011871077	201.16250911256384	-177.12805350653383	141.78799690300337	324.6744434506754	-213.20749190388256	498.99026504155586	335.7553858051072	-213.20942349380812	410.3825811392658	277.5506040739767	-220.25977481217416	517.538524663447	33.46629794281846	-373.96422546481034	541.6226186697883	35.99284719437977	-356.9612267813073	480.9089727017806	51.06476382608645	-309.5812616299148	517.6855644700867	58.8289711010357	-295.90526068042317	549.1182263596779	46.167739076612186	-283.4654858122263	7.2559941780948325	32.39049024054108	-337.25179874138036	-6.449339634430048	58.702342152111456	-229.03001639741723	-7.430282199670284	32.02329000511234	-328.6405756802784	25.326433507813537	32.78455748838528	-347.1794011040691	20.974801910739117	46.372654739047334	-287.2387334828731	53.187614236789074	57.37360375401134	-258.0731640521555	
125	4.166666666666667	297.89079313094936	1701.2698697874646	-227.47541029814525	280.94847845560696	1542.7245969439186	-368.08244425033826	264.3673361179713	1385.9447367954394	-224.25541584581032	452.5798510088019	1343.0676693250468	-262.2946962623072	574.6615123284463	1214.0972223430047	-455.7884276835342	391.17946560083124	1333.446798745147	-512.205277444532	100.24121714802403	1389.2497266790872	-204.99639469386526	78.214394248085	1185.1773285862341	-378.1580592372812	171.70907212797826	1331.627947742916	-542.9285757448571	368.57187591916073	870.1837821091508	-190.65122711971162	407.9217589593807	487.6331452090174	-223.87510433254477	489.75642192644375	106.42796806916405	-183.33760544131357	162.40148075480005	863.6915702344304	-187.5522686575724	121.94605598845334	479.0823746724564	-205.01710937094026	65.41600647904333	100.6210529696991	-161.0516352588648	495.23455814581547	50.028038278119126	-165.3120226350229	54.31589099051905	37.71202988539561	-134.89038232727984	497.73405384913525	39.84224980481501	-391.4500168910816	562.8375982708861	38.49083591738987	-329.78610164332514	56.49080502967732	47.41787185565708	-363.7757126518989	-22.038868606825698	31.92442893741459	-305.3535273997841	114.04392271627043	914.4144171230821	-247.28213086056277	416.05119394282707	921.7984895165266	-247.58780353107485	314.70638648382936	976.6359058191138	-112.66207915291784	211.8444497550767	971.4087586706651	-116.93532334007547	335.9362214027218	1354.0327352656939	-555.8640791058567	325.7666499083758	1390.3877824515228	-517.8649657677277	200.37751974956694	1351.6559582595917	-610.690037553634	204.18268151100466	1400.0483240745427	-588.3417266888573	72.02352594413381	478.78054120878454	-203.96166345423492	401.4344916672648	1321.4720800179048	-535.8734935471307	12.857668523565694	94.89546004388605	-147.43865634675163	458.6357340174401	88.41376054262807	-197.57639125898797	450.5848950400095	483.59907085881514	-230.0523838692153	270.0480515368562	1213.9223262087514	-313.4503244407385	90.66810068945597	83.36377503843617	-177.68255181764408	367.0412448310692	478.7311039719685	-225.95136608693667	103.90063544782336	1173.801071417814	-354.1920007379178	269.49013620569264	994.9904598061011	-321.23157047625966	591.5521475772648	1250.2431535848307	-460.330551050678	390.3117134703129	1333.3333548877595	-480.8567789604213	156.94545640311415	1306.3937191059117	-558.9002441000824	44.07678365805997	1207.2376378591923	-382.42429210469095	163.6365305231038	475.1851149218586	-230.82142735075038	554.0579058785145	1186.5153281438959	-442.1907601309331	540.2288870350661	98.46158954602396	-182.21374646880267	168.07377253528614	1350.3420723617887	-517.1451433420914	280.60327279310707	1465.3045753614929	-357.4970505280559	264.36398759397946	1231.4111034024809	-118.88969390822848	314.7728583087149	1573.2870002350812	-366.7332168291444	246.0007273002233	1574.3733957876725	-361.07832220226055	201.7775244905723	1558.4370168882451	-256.54610065140855	372.4688147678447	1552.354487018986	-268.38260039549124	262.32843615551053	1446.5393608349925	-177.4499579000004	261.02983072862384	1331.237968353311	-122.2455815200784	278.60157365181	1079.8126232234129	-129.49447852475657	264.702131956908	1221.3844900335969	-131.55873674461142	488.01450172935995	1302.8747892040253	-389.21941691961956	557.3217646188469	1260.2663322076025	-353.84437472550303	68.05411337879217	1356.9439852093103	-246.82242143386694	104.08835458805792	1216.32167545043	-302.0955210107693	318.38195865392726	1024.4230464045713	-281.3221772331082	272.77660408971633	1126.2308216568892	-341.1270536318481	202.55165184273892	1258.3260680988935	-322.60505203094755	195.7183268429361	1056.8099849198336	-290.1256534152594	352.8435619919694	1300.3983624429954	-327.549878554423	372.26920786179664	660.8630700913159	-209.34283969522306	470.17933642592527	635.7983164570095	-217.91243747057086	179.62321189827236	584.7080222678076	-206.07761440948542	51.07877632992787	769.6309892787131	-201.41169210696924	12.236633138329234	202.22253846108296	-170.6326082421564	146.05815060783846	324.5611354009312	-200.12703766398408	500.45059220509944	337.0560690892973	-201.74063596079307	411.5284950201714	279.5040974951113	-210.07471746179226	520.9603504184062	33.63450553192664	-372.71266447750486	544.7792563172392	36.527553155157925	-355.3973823056687	483.2447617069031	50.95690464262061	-308.8842619617205	519.7306927230876	59.24183810770556	-294.74317522721356	551.155087353191	47.0297524324377	-281.842035192142	7.46609866053808	33.85162340370072	-336.614605309503	-7.0549252929055575	59.510375606630845	-228.34239189181477	-7.307272012028632	33.563275865970674	-328.1506176480349	25.63655980665946	34.14384034622978	-346.3615179608159	20.82344140393269	47.33915053497937	-286.3683983587414	52.850336221257734	57.81878200708032	-256.8087649041447	
